<?xml version="1.0" standalone="no"?>
<!DOCTYPE svg PUBLIC "-//W3C//DTD SVG 20010904//EN"
        "http://www.w3.org/TR/2001/REC-SVG-20010904/DTD/svg10.dtd">
<svg version="1.0" xmlns="http://www.w3.org/2000/svg"
     width="576.000000pt" height="576.000000pt" viewBox="0 0 576.000000 576.000000"
     preserveAspectRatio="xMidYMid meet">
    <metadata>
        Created by potrace 1.11, written by Peter Selinger 2001-2013
    </metadata>
    <g transform="translate(0.000000,576.000000) scale(0.100000,-0.100000)"
       fill="#000000" stroke="none">
        <path d="M3544 5723 c5 -9 0 -13 -16 -14 -13 0 -30 -2 -38 -4 -8 -2 -26 -6
-40 -8 -14 -3 -27 -6 -30 -7 -3 -2 -8 -2 -12 -1 -5 0 -8 -4 -8 -9 0 -7 -7 -7
-21 1 -12 6 -19 7 -16 2 3 -5 -11 -15 -31 -23 -20 -7 -53 -20 -72 -28 -19 -9
-38 -15 -42 -14 -5 1 -8 -2 -8 -8 0 -6 -5 -10 -11 -10 -34 0 -220 -125 -300
-201 -21 -21 -40 -34 -43 -31 -3 3 -6 0 -6 -6 0 -6 -17 -28 -38 -49 -21 -21
-41 -46 -45 -56 -3 -9 -11 -17 -17 -17 -6 0 -8 -4 -5 -10 3 -5 2 -10 -3 -10
-5 0 -17 -16 -28 -35 -10 -19 -22 -35 -26 -35 -5 0 -8 -7 -8 -15 0 -8 -4 -15
-8 -15 -4 0 -9 -10 -9 -22 -1 -13 -10 -28 -19 -35 -10 -7 -14 -13 -10 -13 5 0
3 -7 -4 -15 -7 -8 -9 -15 -4 -15 5 0 1 -5 -9 -11 -9 -6 -15 -14 -12 -19 3 -5
1 -11 -5 -15 -6 -4 -8 -11 -5 -16 4 -5 1 -9 -6 -9 -7 0 -10 -3 -7 -6 4 -3 0
-20 -7 -39 -8 -18 -11 -35 -8 -39 4 -3 1 -6 -6 -6 -7 0 -9 -4 -6 -10 3 -5 1
-10 -5 -10 -6 0 -8 -5 -5 -10 4 -6 3 -19 -1 -28 -4 -9 -8 -25 -9 -34 -2 -10
-4 -19 -5 -20 -1 -2 -3 -15 -4 -31 -2 -15 -6 -30 -9 -33 -4 -4 -2 -15 3 -25 6
-11 7 -20 1 -24 -6 -3 -9 -23 -8 -45 2 -22 -2 -40 -8 -40 -7 0 -7 -3 0 -8 6
-4 10 -29 10 -57 -1 -27 3 -58 8 -69 7 -14 6 -16 -4 -11 -8 6 -10 4 -4 -5 4
-7 10 -25 12 -39 5 -35 11 -61 18 -91 4 -14 7 -31 7 -37 1 -7 4 -13 8 -13 7 0
35 -100 32 -113 -1 -5 2 -6 8 -2 9 6 14 -7 11 -27 0 -5 3 -8 7 -8 5 0 14 -16
22 -35 8 -19 17 -35 22 -35 4 0 8 -6 8 -13 0 -7 9 -23 20 -35 11 -12 21 -25
22 -29 4 -18 76 -93 89 -93 5 0 7 -5 3 -12 -5 -7 -3 -8 5 -3 7 4 11 16 8 26
-3 11 -1 19 4 19 4 0 6 6 4 13 -6 14 53 89 65 82 4 -3 13 1 19 8 27 33 141
-29 141 -76 0 -16 3 -18 9 -9 5 9 13 -7 22 -47 7 -34 16 -61 20 -61 4 0 6 -12
5 -27 -2 -16 1 -36 6 -45 6 -12 5 -18 -2 -18 -6 0 -8 -4 -5 -10 3 -5 -13 -1
-37 10 -23 10 -46 16 -50 14 -4 -3 -8 -1 -8 4 0 5 -6 9 -12 10 -26 3 -74 11
-108 19 -39 9 -214 8 -275 -1 -22 -3 -49 -7 -60 -9 -11 -1 -22 -5 -25 -9 -3
-4 -21 -10 -40 -13 -19 -3 -40 -11 -47 -17 -7 -6 -13 -8 -13 -4 0 4 -11 -1
-25 -10 -14 -9 -25 -13 -25 -9 0 3 -7 -1 -16 -9 -8 -9 -19 -14 -24 -11 -4 3
-13 -2 -20 -10 -7 -8 -16 -12 -21 -9 -5 3 -9 1 -9 -4 0 -11 -71 -57 -83 -54
-5 2 -6 -2 -2 -8 3 -5 -2 -13 -12 -17 -27 -10 -172 -163 -155 -163 4 0 3 -4
-3 -8 -12 -9 -29 -36 -53 -82 -9 -19 -20 -37 -25 -38 -4 -2 -5 -8 -1 -13 3 -5
0 -9 -7 -9 -7 0 -10 -3 -6 -6 3 -4 -1 -21 -10 -38 -10 -17 -16 -35 -15 -40 2
-4 -5 -20 -14 -33 -13 -21 -14 -27 -3 -34 11 -7 11 -9 1 -9 -7 0 -11 -4 -7 -9
3 -5 1 -13 -5 -16 -18 -11 -53 42 -86 130 -15 42 -17 52 -21 149 -4 81 -3 97
9 90 10 -6 11 -5 1 8 -7 8 -9 18 -5 22 4 4 8 17 9 29 2 34 13 78 24 99 5 10 7
18 5 18 -3 0 3 20 14 44 10 24 16 47 13 50 -4 3 -2 6 4 6 5 0 10 6 10 13 0 20
36 97 46 97 4 0 6 4 3 9 -3 4 1 17 9 27 8 10 15 27 15 37 0 9 4 17 9 17 5 0
14 14 20 30 5 17 15 30 22 30 7 0 9 3 6 6 -4 4 2 19 13 34 11 16 20 33 20 39
0 6 5 11 10 11 6 0 10 7 10 15 0 8 4 15 9 15 5 0 12 11 15 25 4 14 14 25 23
25 9 0 13 3 10 7 -4 3 4 21 18 39 14 18 25 38 25 44 0 6 4 9 9 5 5 -3 12 4 16
15 4 11 11 18 16 15 5 -3 6 2 2 11 -6 16 -7 15 -20 -2 -7 -10 -13 -14 -13 -10
0 5 -11 1 -25 -8 -14 -9 -25 -14 -25 -11 0 3 -8 -2 -17 -11 -10 -8 -40 -30
-68 -47 -52 -33 -84 -58 -118 -92 -11 -11 -16 -14 -12 -6 5 8 -17 -11 -48 -43
-31 -31 -83 -82 -114 -113 -32 -31 -51 -53 -43 -48 8 4 6 -1 -5 -12 -11 -11
-29 -32 -40 -48 -11 -15 -30 -40 -42 -55 -13 -15 -23 -32 -23 -37 0 -5 -9 -19
-20 -31 -12 -12 -18 -22 -14 -22 4 0 0 -8 -8 -17 -9 -10 -19 -28 -22 -40 -4
-13 -12 -23 -17 -23 -5 0 -9 -7 -9 -15 0 -8 -9 -30 -19 -49 -11 -19 -17 -37
-14 -40 4 -3 0 -6 -7 -6 -7 0 -10 -3 -7 -7 4 -3 2 -11 -3 -18 -5 -6 -11 -21
-13 -33 -2 -12 -6 -25 -10 -28 -4 -4 -7 -16 -7 -26 0 -10 -4 -18 -9 -18 -5 0
-8 -8 -6 -17 1 -10 -2 -24 -8 -30 -5 -7 -6 -13 -3 -13 4 0 2 -8 -3 -19 -6 -10
-12 -36 -15 -57 -2 -21 -5 -39 -6 -39 -5 0 -19 -96 -25 -165 -2 -25 -4 -45 -5
-45 -1 0 -3 -8 -5 -17 -2 -10 2 -18 8 -18 8 0 8 -3 2 -8 -11 -8 -17 -165 -6
-158 3 2 6 -22 5 -55 0 -32 2 -59 5 -59 3 0 7 -19 8 -42 2 -23 6 -44 11 -47 4
-3 8 -13 8 -21 1 -33 27 -110 37 -110 6 0 8 -3 4 -6 -3 -4 0 -19 9 -35 8 -16
12 -29 9 -29 -4 0 4 -15 17 -33 13 -17 22 -34 22 -37 -2 -8 9 -35 16 -40 4 -3
17 -23 28 -45 11 -22 30 -50 41 -62 12 -12 21 -27 21 -32 0 -6 10 -21 23 -34
33 -34 70 -79 90 -107 9 -13 17 -21 17 -18 0 4 22 -15 49 -42 27 -27 51 -46
54 -44 3 3 8 -4 12 -15 3 -12 13 -21 21 -21 8 0 14 -4 14 -10 0 -5 7 -10 16
-10 8 0 12 -5 9 -10 -3 -6 0 -10 8 -10 7 0 23 -9 35 -20 12 -11 26 -20 32 -20
6 0 13 -7 16 -15 4 -8 10 -13 14 -10 4 3 18 -3 31 -13 25 -19 49 -30 61 -28 4
0 14 -8 22 -19 9 -11 16 -16 16 -11 0 5 6 4 13 -1 6 -6 29 -16 50 -22 20 -7
37 -16 37 -20 0 -4 6 -8 13 -9 23 -2 46 -8 53 -14 3 -4 12 -4 20 -1 8 3 14 0
14 -5 0 -6 9 -9 20 -7 11 2 20 1 20 -3 0 -7 22 -12 60 -14 8 0 21 -5 28 -11 8
-6 12 -6 12 3 0 9 4 9 13 2 6 -5 42 -9 80 -8 37 0 67 -3 67 -7 0 -5 5 -5 11
-1 7 4 37 8 68 8 31 1 62 5 69 10 7 4 12 2 12 -4 0 -6 7 -4 16 5 13 13 19 14
25 4 6 -10 11 -10 25 2 9 8 19 13 21 12 1 -2 5 -2 8 -2 3 1 13 2 23 3 9 1 22
4 27 7 6 4 27 9 48 13 21 4 35 11 32 16 -3 5 4 7 15 5 11 -2 20 1 20 6 0 6 4
8 9 5 5 -4 11 -1 13 4 2 6 13 12 25 13 13 0 25 7 28 15 3 7 9 10 15 7 5 -3 10
-2 10 4 0 5 10 13 23 17 12 4 32 18 45 31 12 13 22 21 22 17 0 -3 19 11 43 32
23 21 41 42 40 46 -2 5 0 8 5 8 12 0 72 58 72 69 0 6 7 11 16 11 9 0 14 6 11
13 -3 8 1 14 9 14 16 0 19 -13 4 -22 -6 -4 -8 -10 -5 -15 3 -4 -2 -13 -10 -20
-8 -7 -12 -16 -9 -21 3 -5 0 -9 -6 -9 -6 0 -9 -4 -6 -9 3 -5 -3 -20 -14 -34
-11 -14 -20 -29 -20 -34 0 -5 -13 -23 -30 -41 -16 -18 -30 -36 -30 -40 0 -4
-8 -14 -18 -22 -9 -8 -42 -36 -72 -62 -30 -25 -74 -54 -97 -64 -24 -10 -43
-22 -43 -26 0 -5 -9 -8 -19 -8 -11 0 -23 -5 -26 -11 -4 -6 -13 -8 -20 -5 -8 3
-15 1 -17 -4 -2 -5 -12 -11 -23 -13 -11 -1 -26 -6 -32 -10 -7 -5 -18 -5 -23
-2 -5 3 -10 2 -10 -3 0 -5 -6 -9 -12 -9 -7 0 -26 -4 -43 -7 -16 -4 -39 -8 -51
-10 -11 -2 -27 -7 -34 -11 -9 -6 -11 -4 -5 4 5 10 3 11 -11 4 -27 -14 -188
-19 -306 -11 -35 3 -51 -14 -18 -19 8 -1 26 -4 40 -7 14 -2 31 -5 38 -5 7 -1
11 -4 8 -9 -2 -4 13 -7 35 -6 21 0 39 -2 39 -6 0 -3 15 -7 33 -8 42 -3 74 -9
87 -17 6 -3 10 -1 10 5 0 6 5 8 12 4 24 -15 278 -25 278 -11 0 8 3 8 10 1 6
-6 30 -8 58 -4 26 3 64 5 85 5 20 -1 37 3 37 7 0 5 8 8 18 7 9 -2 37 1 62 6
25 5 48 9 52 9 3 1 10 4 14 9 4 4 15 7 25 7 24 0 165 47 204 68 17 9 32 17 35
17 19 4 100 51 100 58 0 4 5 5 10 2 6 -3 10 -2 10 2 0 5 15 17 33 28 17 10 37
24 43 29 7 6 27 22 44 36 18 14 47 37 63 53 16 15 33 27 38 27 4 0 11 9 14 20
4 11 9 19 13 17 7 -4 40 26 45 41 1 4 5 6 10 5 4 -2 7 2 7 8 0 7 14 25 30 41
17 15 30 33 30 38 0 6 4 10 9 10 5 0 13 9 16 20 4 11 11 18 16 14 5 -3 8 -1 7
4 -2 6 14 33 35 62 21 28 39 60 40 70 1 10 4 17 8 15 6 -4 24 28 28 50 1 6 10
18 18 28 9 9 12 17 7 17 -5 0 -3 4 3 8 7 4 14 19 16 32 2 13 9 26 15 28 6 2 8
10 5 19 -5 12 -3 14 7 8 9 -5 11 -4 6 4 -4 6 -3 17 2 24 5 7 13 26 17 42 12
44 12 45 15 50 1 3 3 8 4 13 1 8 25 88 34 112 2 8 6 29 7 45 1 17 3 31 5 33 1
1 4 11 5 22 1 11 3 21 5 23 4 4 10 72 12 139 2 38 5 68 8 68 3 0 5 41 5 90 0
50 -2 90 -5 90 -3 0 -5 27 -5 60 0 33 -2 60 -5 60 -3 0 -7 12 -8 28 -4 42 -7
56 -15 70 -5 6 -6 12 -3 12 2 0 -4 29 -14 64 -10 36 -15 68 -12 72 4 4 1 4 -5
0 -9 -5 -13 0 -13 13 0 12 0 22 1 24 0 1 -6 15 -15 31 -8 16 -13 33 -11 37 3
4 -2 10 -11 13 -8 3 -13 10 -9 15 3 5 1 12 -5 16 -5 3 -10 15 -10 25 0 10 -5
20 -11 22 -5 2 -11 10 -13 18 -2 15 -7 25 -46 90 -11 19 -23 43 -26 53 -4 9
-11 17 -17 17 -6 0 -8 3 -5 6 3 3 -5 17 -18 31 -13 14 -24 30 -24 34 0 5 -8
17 -17 28 -43 45 -82 91 -78 91 4 0 -100 102 -135 132 -32 27 -89 68 -95 68
-4 0 -12 6 -19 13 -21 19 -53 40 -60 38 -4 -1 -13 4 -20 11 -31 29 -55 46 -59
42 -2 -2 -10 2 -17 11 -7 8 -19 15 -26 15 -8 0 -14 4 -14 8 0 5 -12 15 -27 22
-16 8 -44 25 -63 39 -19 14 -38 27 -42 27 -5 1 -13 2 -19 3 -5 0 -7 6 -4 11 3
6 -1 10 -10 10 -9 0 -27 11 -40 24 -13 13 -26 22 -28 20 -2 -2 -12 5 -22 16
-10 11 -24 20 -32 20 -7 0 -12 3 -11 8 1 4 -15 25 -37 47 -22 22 -41 47 -43
55 -2 8 -8 18 -14 21 -10 7 -29 70 -32 107 0 12 -4 22 -7 22 -3 0 -7 26 -9 58
-6 121 -5 202 2 202 4 0 5 7 1 16 -3 9 0 20 8 25 9 6 10 9 2 9 -9 0 -9 10 2
40 8 22 12 40 9 40 -2 0 2 15 10 34 8 19 12 37 8 40 -3 3 0 6 6 6 7 0 12 5 12
12 0 18 52 118 61 118 5 0 9 6 9 13 0 7 9 23 20 35 11 12 20 26 20 32 0 5 4
10 8 10 5 0 21 17 35 37 15 21 27 34 27 30 0 -4 21 13 46 38 25 25 48 45 51
45 4 0 23 14 79 60 7 5 15 6 18 3 3 -4 6 -2 6 4 0 6 14 16 30 23 17 7 30 17
30 22 0 5 5 6 10 3 6 -3 10 -2 10 4 0 5 16 15 35 21 19 6 32 16 29 21 -3 6
-12 8 -20 5 -8 -3 -14 -2 -14 3 0 12 -33 9 -42 -4 -5 -6 -8 -5 -8 3 0 6 -5 12
-11 12 -5 0 -8 -4 -5 -8 2 -4 -4 -8 -14 -8 -10 0 -17 3 -14 7 5 9 -23 5 -32
-4 -4 -4 -14 -1 -22 6 -13 9 -14 9 -8 0z"/>
        <path d="M2530 5010 c-8 -5 -18 -6 -22 -4 -4 3 -13 2 -20 -2 -6 -4 -25 -8 -42
-10 -17 -1 -46 -7 -64 -12 -18 -6 -35 -11 -37 -11 -3 -1 -6 -1 -7 -2 -21 -6
-39 -10 -68 -15 -19 -4 -40 -11 -47 -16 -7 -5 -16 -7 -22 -4 -5 3 -11 1 -13
-4 -2 -6 -13 -12 -26 -13 -12 0 -22 -5 -22 -10 0 -4 -4 -5 -10 -2 -5 3 -10 1
-10 -5 0 -6 -4 -9 -8 -6 -5 3 -20 -1 -35 -9 -15 -8 -27 -11 -27 -8 0 3 -9 -2
-20 -12 -11 -10 -20 -15 -20 -10 0 4 -6 2 -13 -4 -8 -6 -17 -8 -20 -4 -4 3 -7
1 -7 -5 0 -7 -9 -12 -20 -12 -11 0 -20 -3 -20 -8 0 -8 -73 -42 -90 -42 -6 0
-10 -4 -10 -10 0 -5 -15 -16 -34 -24 -18 -8 -37 -19 -40 -25 -4 -6 -11 -9 -16
-6 -4 3 -10 -2 -14 -10 -3 -8 -12 -15 -20 -15 -9 0 -24 -10 -36 -22 -11 -12
-20 -18 -20 -14 0 4 -6 1 -13 -6 -8 -7 -26 -22 -42 -33 -15 -11 -36 -28 -47
-37 -10 -10 -19 -17 -20 -16 -9 6 -234 -212 -231 -223 2 -5 -4 -9 -12 -9 -8 0
-15 -7 -15 -15 0 -8 -4 -15 -9 -15 -6 0 -31 -28 -58 -62 -26 -35 -51 -64 -55
-66 -4 -2 -8 -10 -8 -17 0 -7 -7 -16 -16 -19 -8 -3 -13 -10 -10 -15 3 -5 -1
-12 -10 -15 -8 -3 -12 -10 -9 -16 3 -5 2 -10 -4 -10 -5 0 -20 -20 -32 -45 -12
-25 -27 -45 -31 -45 -5 0 -7 -4 -3 -9 3 -6 -3 -14 -12 -20 -10 -6 -15 -11 -10
-11 4 0 -4 -18 -17 -39 -14 -21 -22 -42 -19 -45 4 -3 1 -6 -5 -6 -7 0 -12 -3
-11 -7 2 -16 -14 -53 -22 -53 -5 0 -9 -8 -9 -18 0 -10 -7 -27 -15 -39 -8 -12
-16 -29 -18 -40 -2 -10 -9 -31 -15 -46 -7 -16 -12 -33 -12 -38 0 -5 -5 -9 -12
-9 -6 0 -9 -3 -5 -6 3 -4 0 -22 -8 -40 -8 -19 -14 -37 -15 -39 0 -3 0 -6 -1
-7 0 -2 -3 -16 -5 -32 -3 -16 -10 -38 -15 -48 -5 -10 -7 -23 -4 -28 3 -6 2
-10 -3 -10 -5 0 -8 -13 -7 -30 1 -16 -1 -27 -6 -24 -5 3 -9 -7 -10 -23 0 -15
-3 -37 -6 -48 -2 -11 -5 -37 -6 -57 -1 -21 -6 -38 -10 -38 -5 0 -6 -4 -2 -9 3
-5 1 -13 -5 -16 -8 -5 -7 -11 1 -21 6 -8 8 -14 3 -14 -11 0 -11 -60 -1 -78 5
-7 3 -14 -5 -17 -14 -5 -17 -93 -4 -114 4 -6 3 -11 -1 -11 -5 0 -6 -29 -3 -65
3 -37 1 -70 -4 -75 -7 -7 -6 -10 3 -10 7 0 9 -5 6 -10 -4 -6 -1 -18 7 -27 8
-11 8 -14 1 -10 -8 5 -11 0 -10 -13 1 -11 4 -20 7 -20 5 0 6 -18 13 -132 1
-21 5 -38 10 -38 4 0 7 -18 7 -41 0 -28 4 -38 12 -33 8 5 9 2 5 -10 -4 -9 0
-37 9 -62 9 -26 17 -54 19 -64 2 -10 8 -34 13 -53 6 -20 7 -39 4 -43 -4 -4 -1
-4 5 0 8 4 13 1 14 -8 2 -25 14 -58 31 -90 5 -10 11 -26 13 -36 5 -24 78 -174
88 -178 4 -2 5 -7 2 -12 -3 -4 2 -13 10 -20 8 -7 15 -19 15 -26 0 -8 5 -14 12
-14 6 0 9 -3 6 -6 -6 -5 26 -60 52 -91 6 -7 15 -24 22 -38 6 -14 15 -25 20
-25 4 0 8 -4 8 -10 0 -5 8 -19 18 -29 31 -35 43 -51 37 -51 -3 0 10 -15 30
-32 19 -18 35 -36 35 -41 0 -10 207 -216 249 -247 19 -14 41 -32 50 -41 9 -8
41 -33 71 -54 30 -22 57 -42 60 -46 3 -3 15 -9 27 -13 13 -4 23 -12 23 -17 0
-6 5 -7 10 -4 6 3 10 1 10 -4 0 -6 7 -11 15 -11 8 0 15 -4 15 -9 0 -5 15 -14
33 -21 17 -8 40 -20 50 -28 9 -8 17 -11 17 -6 0 5 4 4 8 -1 8 -12 64 -39 75
-37 4 1 7 -3 7 -8 0 -6 9 -10 21 -10 11 0 18 -4 15 -8 -2 -4 6 -9 20 -10 13
-1 36 -10 51 -19 15 -10 27 -17 28 -15 0 2 14 -2 30 -8 17 -6 42 -14 58 -17
15 -3 27 -8 27 -12 0 -6 17 -10 58 -13 6 -1 12 -4 12 -8 0 -6 8 -8 48 -11 9
-1 22 -5 27 -9 6 -4 22 -7 37 -6 14 1 24 -2 22 -6 -2 -3 0 -9 6 -13 5 -3 10
-1 10 5 0 6 5 8 13 3 6 -4 23 -9 37 -10 14 -2 41 -5 60 -7 19 -2 35 -5 35 -6
0 -4 78 -11 115 -10 27 0 31 -2 20 -10 -8 -5 -10 -10 -4 -10 5 0 15 5 21 11 8
8 13 8 18 -1 5 -8 10 -8 21 1 8 6 14 7 14 2 0 -11 29 -11 48 1 7 4 12 2 12 -6
0 -9 3 -9 10 2 8 12 10 12 10 1 0 -11 3 -11 17 0 14 12 15 12 9 1 -7 -11 -4
-12 13 -3 12 7 21 8 21 2 0 -10 46 -9 57 2 11 12 25 8 17 -5 -5 -7 -3 -8 7 -2
8 4 26 9 41 9 15 0 30 4 34 8 4 4 13 2 21 -4 7 -6 13 -8 13 -3 0 5 10 10 23
10 61 4 142 16 147 22 3 4 19 8 35 9 52 4 65 7 65 14 0 4 10 7 23 7 30 2 50 6
65 15 6 5 17 5 22 2 6 -3 10 -1 10 6 0 7 3 9 7 6 3 -4 11 -3 17 2 6 4 32 14
59 21 26 7 50 17 53 22 3 4 9 6 14 3 5 -3 24 4 42 15 18 11 41 20 50 20 9 0
18 5 20 10 2 6 13 12 26 13 12 0 22 4 22 8 0 4 15 12 33 20 17 7 34 16 37 19
3 3 20 12 38 19 17 8 32 18 32 23 0 5 5 6 10 3 6 -3 10 -1 10 4 0 6 5 11 11
11 6 0 26 12 45 26 19 15 34 23 34 20 0 -4 6 -2 12 4 7 5 29 24 48 40 19 16
40 30 45 30 6 0 16 9 23 20 7 11 19 20 27 20 8 0 15 7 15 16 0 8 4 13 9 10 12
-8 283 262 276 274 -4 6 1 10 9 10 9 0 16 5 16 12 0 7 9 21 20 33 45 47 60 66
60 74 0 5 6 16 13 23 27 29 68 88 60 88 -4 0 -3 4 2 8 14 10 33 41 46 75 6 15
15 27 21 27 5 0 6 5 3 10 -3 6 0 13 9 16 8 3 13 11 10 18 -3 7 2 19 10 26 9 7
13 16 10 21 -3 5 0 9 7 9 7 0 9 3 6 6 -3 4 0 16 8 28 8 11 15 28 15 38 0 10 5
18 10 18 6 0 10 9 10 20 0 11 5 20 11 20 5 0 8 4 5 9 -3 5 1 22 9 37 8 16 15
37 15 46 0 9 5 20 11 23 6 4 8 13 5 21 -3 7 -1 16 3 19 5 2 12 22 17 42 4 21
8 40 9 43 18 60 26 92 31 125 3 22 7 45 8 50 1 6 4 15 7 20 2 6 5 29 4 52 0
22 4 39 9 35 5 -3 6 8 3 26 -4 18 -3 32 1 32 4 0 7 32 7 71 0 39 3 73 7 75 3
2 3 17 0 32 -9 34 -9 54 1 70 5 7 3 12 -4 12 -8 0 -8 4 1 15 10 12 10 15 -1
15 -9 0 -10 3 -2 11 12 12 5 61 -9 53 -6 -4 -6 1 0 13 7 12 7 24 0 37 -8 15
-8 17 2 11 9 -5 11 -4 6 3 -4 7 -9 31 -12 54 -7 69 -12 100 -22 150 -5 26 -7
50 -4 53 3 3 0 5 -6 5 -7 0 -12 5 -12 11 0 5 4 8 10 4 5 -3 3 6 -5 21 -7 14
-12 35 -10 45 3 13 0 17 -7 13 -7 -5 -9 -2 -5 9 3 9 2 19 -3 22 -8 5 -26 83
-22 98 2 5 -2 6 -8 2 -6 -4 -10 4 -10 19 0 14 -5 28 -10 31 -6 4 -8 10 -5 15
3 5 1 11 -5 15 -6 4 -8 10 -5 15 3 5 1 11 -5 15 -5 3 -10 15 -10 26 0 10 -4
19 -10 19 -5 0 -10 7 -10 15 0 17 -20 56 -33 66 -5 3 -8 9 -7 13 2 11 -24 66
-32 66 -4 0 -5 7 -2 15 4 8 -1 17 -10 21 -9 3 -16 14 -16 24 0 9 -9 25 -20 35
-11 10 -17 22 -14 26 3 5 -2 12 -10 15 -9 3 -14 10 -11 14 3 4 -2 13 -10 20
-8 7 -12 16 -9 21 3 5 -1 9 -8 9 -7 0 -22 19 -33 41 -10 23 -25 44 -32 46 -7
3 -13 9 -13 14 0 10 -3 14 -85 104 -29 32 -51 63 -49 67 3 5 2 7 -3 6 -4 -1
-41 30 -82 70 -40 39 -75 72 -77 72 -2 0 -21 16 -41 35 -20 19 -40 35 -44 35
-4 0 -14 6 -21 13 -30 29 -97 77 -106 77 -6 0 -12 4 -14 8 -4 10 -95 63 -104
61 -4 0 -11 6 -16 15 -5 9 -16 16 -23 16 -8 0 -15 5 -15 11 0 5 -4 8 -9 4 -5
-3 -12 -1 -16 5 -4 6 -10 8 -15 5 -4 -3 -10 1 -13 9 -3 7 -18 17 -33 20 -15 4
-41 17 -58 29 -16 11 -26 15 -22 9 4 -7 -13 -1 -38 13 -25 14 -46 23 -46 21 0
-3 -25 6 -56 20 -31 14 -52 19 -48 12 6 -10 4 -10 -8 0 -15 12 -47 23 -75 24
-7 1 -13 6 -13 11 0 5 -7 7 -15 3 -8 -3 -15 0 -15 7 0 8 -3 8 -9 -2 -5 -8 -10
-9 -12 -3 -4 11 -48 21 -109 27 -19 1 -34 7 -33 12 1 6 -11 8 -30 4 -28 -6
-32 -11 -32 -39 0 -18 -2 -32 -6 -32 -3 0 -6 -7 -6 -15 0 -8 5 -15 11 -15 6 0
5 -4 -3 -9 -9 -6 -10 -10 -2 -16 9 -5 9 -10 0 -21 -9 -11 -9 -14 1 -14 10 0
10 -3 0 -15 -10 -12 -10 -15 1 -15 11 0 11 -2 -1 -10 -12 -8 -12 -10 -1 -10
10 0 11 -3 2 -14 -8 -9 -8 -16 -2 -20 5 -4 10 -14 10 -24 2 -53 6 -72 14 -72
4 0 6 -3 4 -7 -8 -14 12 -53 28 -53 8 0 15 -4 15 -8 0 -4 12 -9 28 -10 59 -6
67 -7 80 -19 7 -7 19 -10 27 -7 8 4 15 1 15 -6 0 -6 6 -10 13 -7 6 2 25 -2 40
-10 16 -8 38 -16 50 -19 11 -2 24 -9 29 -16 4 -7 8 -9 8 -4 0 6 5 5 12 -2 7
-7 20 -12 31 -12 10 0 15 -4 12 -10 -3 -5 0 -7 8 -4 8 3 18 0 22 -5 3 -6 11
-9 16 -6 5 4 9 1 9 -4 0 -6 4 -11 10 -11 5 0 48 -24 96 -52 47 -29 95 -58 107
-65 11 -6 22 -15 26 -20 3 -4 22 -19 41 -32 19 -14 39 -30 43 -38 4 -7 14 -13
21 -13 7 0 19 -11 26 -25 7 -13 16 -22 20 -20 3 2 19 -9 34 -26 15 -16 32 -29
37 -29 5 0 9 -7 9 -15 0 -8 5 -15 11 -15 5 0 7 -5 3 -12 -4 -6 -3 -8 4 -4 6 3
20 -8 32 -24 12 -17 36 -46 52 -63 16 -18 40 -48 53 -68 13 -20 31 -43 39 -52
9 -9 17 -19 16 -22 -1 -20 1 -28 6 -22 3 3 18 -15 32 -41 63 -116 100 -192 95
-192 -3 0 1 -8 9 -17 9 -10 14 -26 13 -35 -2 -10 1 -18 5 -18 7 0 39 -81 44
-113 1 -7 5 -17 9 -24 4 -6 8 -23 9 -37 1 -14 6 -26 11 -26 5 0 7 -6 4 -12 -2
-7 2 -35 10 -62 8 -26 12 -54 9 -62 -3 -7 -1 -16 4 -19 5 -3 7 -14 5 -25 -2
-11 -1 -20 3 -20 14 0 20 -303 9 -420 -7 -72 -12 -105 -21 -147 -4 -15 -9 -38
-11 -50 -5 -23 -10 -44 -21 -85 -3 -13 -6 -29 -6 -35 -1 -7 -6 -13 -11 -13 -6
0 -8 -3 -4 -6 3 -3 -1 -25 -10 -47 -8 -23 -16 -49 -18 -57 -2 -8 -4 -17 -5
-20 -1 -3 -2 -8 -1 -12 0 -5 -3 -8 -8 -8 -5 0 -13 -10 -16 -22 -12 -41 -69
-158 -77 -158 -4 0 -8 -9 -8 -20 0 -11 -4 -20 -9 -20 -5 0 -12 -11 -15 -25 -4
-17 -11 -23 -19 -19 -7 4 -9 4 -5 -1 8 -8 -84 -150 -106 -162 -8 -4 -15 -12
-17 -18 -4 -24 -12 -34 -20 -29 -5 3 -9 1 -9 -5 0 -6 -17 -28 -37 -50 -21 -22
-43 -46 -49 -53 -14 -16 -98 -90 -137 -120 -16 -12 -40 -33 -53 -45 -14 -13
-29 -23 -33 -23 -7 0 -24 -12 -69 -50 -7 -6 -21 -12 -32 -13 -10 -1 -17 -4
-14 -8 3 -6 -16 -18 -36 -24 -3 0 -21 -11 -40 -23 -19 -12 -50 -27 -68 -33
-18 -6 -30 -15 -26 -20 3 -5 2 -9 -3 -8 -17 3 -73 -14 -73 -23 0 -5 -3 -7 -8
-4 -4 2 -23 -2 -42 -10 -19 -9 -36 -15 -37 -15 -2 0 -21 -6 -43 -14 -22 -8
-40 -12 -40 -8 0 3 -7 0 -15 -7 -8 -6 -20 -8 -26 -4 -7 4 -9 3 -5 -4 4 -6 -1
-11 -11 -11 -10 0 -34 -3 -53 -7 -19 -4 -45 -8 -57 -8 -13 -1 -23 -3 -23 -6 0
-3 -17 -7 -37 -8 -21 -2 -39 -5 -42 -7 -2 -3 -10 0 -17 6 -10 8 -15 8 -19 -3
-4 -11 -39 -13 -178 -12 -94 1 -192 5 -217 9 -25 3 -57 7 -72 7 -16 1 -28 5
-28 8 0 4 -12 8 -27 8 -27 2 -68 9 -68 12 0 1 -9 3 -20 5 -51 10 -175 50 -175
57 0 4 -7 5 -15 2 -8 -4 -15 -1 -15 5 0 6 -3 10 -7 9 -5 0 -16 2 -25 5 -10 4
-26 10 -35 14 -10 3 -21 5 -25 5 -5 -1 -8 3 -8 9 0 5 -4 7 -10 4 -5 -3 -10 -2
-10 3 0 5 -18 15 -40 22 -22 7 -40 16 -40 19 0 3 -23 17 -50 30 -27 14 -46 29
-43 34 4 6 1 7 -7 2 -7 -4 -15 -4 -19 1 -3 5 -26 23 -51 39 -25 17 -49 33 -55
37 -14 10 -73 59 -98 83 -12 11 -37 32 -55 48 -19 15 -31 27 -29 27 3 0 -20
25 -51 55 -31 30 -52 55 -48 55 5 0 -3 9 -18 21 -14 11 -24 25 -21 30 4 5 -2
9 -11 9 -10 0 -15 3 -11 6 5 5 -10 27 -40 59 -7 7 -9 15 -6 19 3 3 -2 8 -11
12 -9 3 -16 15 -16 26 0 10 -4 17 -9 14 -5 -3 -15 9 -22 27 -7 17 -21 40 -30
50 -9 10 -22 35 -29 57 -7 22 -17 40 -23 40 -5 0 -7 7 -3 15 3 8 2 15 -3 15
-10 0 -42 78 -40 96 0 4 -3 10 -8 13 -7 5 -33 76 -34 96 0 2 -9 28 -20 57 -10
29 -19 65 -19 80 0 16 -4 28 -8 28 -4 0 -8 10 -9 23 -1 54 -4 68 -12 63 -5 -4
-6 9 -1 29 5 24 5 33 -3 28 -6 -4 -8 0 -4 10 4 10 1 17 -5 17 -9 0 -9 3 -1 11
7 7 8 20 4 33 -10 27 -6 350 4 366 5 7 9 36 10 64 1 29 4 57 8 63 9 14 28 99
30 135 1 14 5 24 8 22 6 -3 12 19 21 71 0 6 12 30 25 54 12 24 23 49 23 55 0
18 73 166 82 166 5 0 7 4 3 9 -3 5 0 15 7 23 7 7 22 30 33 51 11 20 23 37 27
37 5 0 8 5 8 11 0 12 61 96 98 134 6 8 12 16 12 19 0 8 195 206 202 206 6 0
63 47 100 83 10 9 18 14 18 10 0 -3 11 4 25 17 14 13 25 20 25 15 0 -4 8 2 19
13 10 12 20 19 23 17 3 -3 11 1 18 10 7 8 19 15 26 15 8 0 14 5 14 11 0 5 4 8
9 5 5 -3 14 1 21 9 7 8 18 15 25 15 7 0 18 7 25 15 7 9 19 14 27 11 7 -3 13
-1 13 4 0 5 10 12 23 16 12 5 24 9 27 10 3 1 15 5 28 9 12 4 22 12 22 18 0 6
3 8 6 4 6 -5 62 12 109 34 11 6 30 11 43 12 12 0 22 6 22 11 0 5 3 7 6 3 3 -3
18 -1 33 4 25 9 28 14 26 54 -2 25 2 45 7 45 5 0 7 4 3 9 -8 13 6 92 15 86 4
-2 6 7 4 20 -1 14 2 27 6 30 5 3 7 12 3 20 -3 8 1 15 8 15 7 0 10 3 6 6 -3 4
0 21 7 38 7 17 11 37 9 44 -3 6 0 12 5 12 13 0 22 24 13 38 -4 7 -12 8 -21 2z"/>
        <path d="M2356 1393 c-6 -14 -5 -15 5 -6 7 7 10 15 7 18 -3 3 -9 -2 -12 -12z"/>
    </g>
</svg>
